PathFileType	4	(X/Y/Z)	Kaydara																																																																																																																									
DataRate	CameraRate	NumFrames	NumMarkers	Units	OrigDataRate	OrigDataStartFrame	OrigNumFrames																																																																																																																					
30	30	4	41	mm	30	65	258																																																																																																																					
Frame#	Time	SALE_LFHD			SALE_RFHD			SALE_LBHD			SALE_RBHD			SALE_LFTShould			SALE_RFTShould			SALE_LRRShould			SALE_RRRShould			SALE_T10			SALE_STRN			SALE_TRUN			SALE_LSHO			SALE_LUPA			SALE_LELB			SALE_LFRM			SALE_LWRA			SALE_LWRB			SALE_LFIN			SALE_RSHO			SALE_RUPA			SALE_RELB			SALE_RFRM			SALE_RWRB			SALE_RFIN			SALE_LFWT			SALE_RFWT			SALE_LBWT			SALE_RBWT			SALE_LTHI			SALE_LKNE			SALE_RWRA			SALE_LSHN			SALE_LANK			SALE_LHEE			SALE_LTOE			SALE_RTHI			SALE_RKNE			SALE_RSHN			SALE_RANK			SALE_RHEE			SALE_RTOE		
		X1	Y1	Z1	X2	Y2	Z2	X3	Y3	Z3	X4	Y4	Z4	X5	Y5	Z5	X6	Y6	Z6	X7	Y7	Z7	X8	Y8	Z8	X9	Y9	Z9	X10	Y10	Z10	X11	Y11	Z11	X12	Y12	Z12	X13	Y13	Z13	X14	Y14	Z14	X15	Y15	Z15	X16	Y16	Z16	X17	Y17	Z17	X18	Y18	Z18	X19	Y19	Z19	X20	Y20	Z20	X21	Y21	Z21	X22	Y22	Z22	X23	Y23	Z23	X24	Y24	Z24	X25	Y25	Z25	X26	Y26	Z26	X27	Y27	Z27	X28	Y28	Z28	X29	Y29	Z29	X30	Y30	Z30	X31	Y31	Z31	X32	Y32	Z32	X33	Y33	Z33	X34	Y34	Z34	X35	Y35	Z35	X36	Y36	Z36	X37	Y37	Z37	X38	Y38	Z38	X39	Y39	Z39	X40	Y40	Z40	X41	Y41	Z41
																																																																																																																												
65	2.143	207.09084	1633.73123	-1917.68066	77.57079	1629.44748	-1918.05588	203.25191	1650.89355	-2050.69153	77.77918	1644.76364	-2043.88824	223.28165	1386.59882	-1997.19543	81.2179	1381.90704	-1991.73523	210.77957	1446.98212	-2109.38004	59.30077	1449.33472	-2093.75443	132.90574	1295.94315	-2174.767	151.03249	1310.89951	-1949.50073	152.16552	1223.91403	-1910.46188	334.49654	1412.77435	-2067.01813	378.09242	1195.33257	-2073.14835	364.44729	1085.29907	-2092.06009	390.88696	980.32234	-2056.49185	324.75231	844.66721	-1991.48376	392.37682	835.98656	-2026.33316	386.58863	794.91226	-1976.63696	-30.5378	1411.79245	-2045.41702	-67.34241	1181.04919	-2104.65591	-86.5372	1080.35225	-2054.33289	-77.91064	967.0565	-2063.31406	-83.19348	829.96094	-2012.17285	-82.7357	792.17339	-1956.45584	279.41628	978.13599	-1968.98407	-0.12946	973.72795	-1977.40311	224.49368	1038.638	-2138.34671	46.40452	1041.46721	-2143.67599	284.42165	677.79846	-2134.06403	279.04398	506.71803	-2057.32269	-30.93092	844.8423	-1964.64142	280.47226	307.63102	-2066.62994	282.71404	125.64098	-2120.62576	246.99764	75.93957	-2185.78369	257.70536	86.55072	-1988.99734	-2.36546	722.37	-2137.68494	19.59018	562.4651	-2036.37115	75.07847	373.84922	-2058.42636	32.65331	123.71647	-2119.40308	45.50327	78.14903	-1998.93234	79.57666	63.94907	-2189.2984
66	2.177	204.56184	1632.21985	-1913.15201	74.81405	1627.82242	-1913.08701	200.04721	1651.62186	-2046.03897	74.72199	1645.07309	-2038.66638	220.543	1386.50131	-1994.47632	77.17512	1381.52069	-1990.33676	208.0023	1447.23343	-2106.4624	56.53482	1449.34219	-2090.77377	130.1988	1296.28357	-2172.31903	148.26351	1310.43015	-1947.01828	149.41802	1223.36975	-1908.31177	331.70052	1412.91046	-2064.19739	375.54436	1195.57655	-2070.87341	361.92509	1085.53291	-2090.13901	388.47466	980.51956	-2054.88617	322.4474	844.49104	-1990.51971	390.16857	836.11954	-2025.24918	384.34612	794.87747	-1975.73059	-33.31964	1411.58676	-2042.64969	-69.96929	1180.84007	-2102.48611	-89.05416	1080.12512	-2052.47192	-80.28816	966.8734	-2061.70609	-85.50397	829.61571	-2010.92361	-85.10833	791.68022	-1955.32425	277.19755	978.25813	-1967.53845	-2.39719	973.40019	-1975.9285	222.07777	1038.55774	-2136.63208	43.91641	1041.12343	-2141.86844	282.04439	677.51205	-2131.50391	276.9504	506.62537	-2054.14612	-33.36583	844.34288	-1963.29651	279.0255	307.24752	-2064.64706	282.18231	125.85418	-2120.24704	246.79457	76.04671	-2185.7692	257.46664	86.58978	-1989.02939	-4.17348	722.34879	-2136.37543	18.14868	562.21283	-2035.42892	74.13709	373.74191	-2057.98264	32.44717	123.61061	-2119.34402	45.50993	78.12595	-1998.93509	79.5227	63.97166	-2189.32388
67	2.21	201.26606	1630.08179	-1907.62238	71.94241	1625.81543	-1907.37396	196.66639	1652.10663	-2040.38361	71.33508	1645.43793	-2032.47375	217.54192	1386.39099	-1991.58829	73.84962	1381.02234	-1987.59064	204.79412	1447.45392	-2103.36578	53.25131	1449.0741	-2087.69745	127.15333	1296.57791	-2169.67316	145.20946	1309.96094	-1944.36844	146.52092	1222.82898	-1906.01395	328.55865	1413.15704	-2061.31256	372.56401	1195.87662	-2068.5762	359.0733	1085.83572	-2088.06564	385.76683	980.80009	-2053.16727	319.97143	844.59366	-1989.04694	387.60628	836.31454	-2023.87726	381.95683	794.9733	-1974.5108	-36.46403	1411.29608	-2039.65027	-72.82503	1180.71365	-2100.15213	-91.88129	1079.81461	-2050.40375	-83.0092	966.60728	-2059.89578	-88.09956	829.22722	-2009.35562	-87.83014	791.20132	-1953.77335	274.53348	978.56064	-1965.13824	-4.87256	973.1942	-1974.03564	219.38046	1038.32016	-2134.66278	41.12809	1040.65895	-2139.87549	279.24831	677.05154	-2128.27957	274.41492	506.623	-2049.991	-36.03088	844.02695	-1961.48468	277.3946	306.78467	-2062.19269	281.50202	126.04286	-2119.96552	246.52609	76.12047	-2185.728	257.19254	86.60933	-1988.99811	-5.95076	722.13272	-2134.50562	16.46109	561.99718	-2034.26697	73.09464	373.5376	-2057.31079	32.20316	123.50992	-2119.22562	45.44652	78.06115	-1998.91785	79.48037	63.95333	-2189.32861
68	2.243	198.46027	1627.66281	-1901.7955	68.93536	1623.2637	-1900.85052	193.0151	1652.65121	-2033.78403	67.6934	1645.83008	-2025.56473	214.23845	1386.28311	-1988.5527	70.90763	1380.83481	-1983.70438	201.22379	1447.49222	-2099.96918	49.72435	1448.95096	-2084.31641	123.70869	1296.82541	-2166.83517	141.84404	1309.48242	-1941.57715	143.31823	1222.11006	-1903.43689	324.9802	1413.2724	-2058.24539	369.27292	1196.11824	-2066.34094	355.85102	1086.07178	-2086.026	382.7953	981.03355	-2051.37878	317.29771	844.66316	-1987.18155	384.77364	836.50787	-2022.26212	379.23729	795.03235	-1972.901	-39.91307	1410.89813	-2036.36215	-75.99686	1180.39742	-2097.5737	-95.04707	1079.36546	-2048.01895	-85.97951	966.10092	-2057.6738	-90.92253	828.72299	-2007.42096	-90.82516	790.66689	-1951.90796	271.64228	978.77556	-1962.76794	-7.89627	973.10776	-1970.78079	216.39473	1038.00049	-2132.45239	38.13662	1040.11047	-2137.59552	276.12377	676.36856	-2124.30573	271.74622	506.56368	-2044.62036	-39.22879	843.41675	-1959.42719	275.66038	306.17918	-2058.96393	280.85291	126.28891	-2119.5256	246.16491	76.37339	-2185.67596	256.98425	86.64301	-1988.9946	-8.00889	722.05849	-2132.65335	14.84496	561.7345	-2032.82791	71.96905	373.35339	-2056.47598	32.0059	123.39392	-2119.05151	45.38752	78.05233	-1998.90823	79.47575	64.01854	-2189.319
